<?xml version="1.0" encoding="UTF-8" standalone="no"?>
<!-- Created with Inkscape (http://www.inkscape.org/) -->

<svg
   xmlns:dc="http://purl.org/dc/elements/1.1/"
   xmlns:cc="http://creativecommons.org/ns#"
   xmlns:rdf="http://www.w3.org/1999/02/22-rdf-syntax-ns#"
   xmlns:svg="http://www.w3.org/2000/svg"
   xmlns="http://www.w3.org/2000/svg"
   xmlns:sodipodi="http://sodipodi.sourceforge.net/DTD/sodipodi-0.dtd"
   xmlns:inkscape="http://www.inkscape.org/namespaces/inkscape"
   width="300.37463"
   height="29.277767"
   id="svg3973"
   version="1.1"
   inkscape:version="0.48.4 r9939"
   sodipodi:docname="gioname.svg">
  <defs
     id="defs3975" />
  <sodipodi:namedview
     id="base"
     pagecolor="#ffffff"
     bordercolor="#666666"
     borderopacity="1.0"
     inkscape:pageopacity="0.0"
     inkscape:pageshadow="2"
     inkscape:zoom="0.98994949"
     inkscape:cx="385.17317"
     inkscape:cy="23.496984"
     inkscape:document-units="px"
     inkscape:current-layer="layer1"
     showgrid="false"
     fit-margin-top="0"
     fit-margin-left="0"
     fit-margin-right="0"
     fit-margin-bottom="0"
     inkscape:window-width="1858"
     inkscape:window-height="1178"
     inkscape:window-x="54"
     inkscape:window-y="-8"
     inkscape:window-maximized="1" />
  <metadata
     id="metadata3978">
    <rdf:RDF>
      <cc:Work
         rdf:about="">
        <dc:format>image/svg+xml</dc:format>
        <dc:type
           rdf:resource="http://purl.org/dc/dcmitype/StillImage" />
        <dc:title />
      </cc:Work>
    </rdf:RDF>
  </metadata>
  <g
     inkscape:label="Layer 1"
     inkscape:groupmode="layer"
     id="layer1"
     transform="translate(-187.24854,-514.06189)">
    <g
       style="display:inline"
       id="g3928"
       transform="matrix(0.7999262,0,0,0.7999262,101.34799,293.40121)">
      <g
         transform="matrix(0.65915767,0,0,0.65915767,-12.485546,-253.59747)"
         id="text7212"
         style="font-size:74.82572937px;font-style:normal;font-variant:normal;font-weight:bold;font-stretch:normal;text-align:start;line-height:0%;letter-spacing:0px;word-spacing:0px;writing-mode:lr-tb;text-anchor:start;fill:#a43b00;fill-opacity:1;stroke:none;font-family:Sans;-inkscape-font-specification:Sans Bold">
        <path
           inkscape:connector-curvature="0"
           id="path7393"
           style="font-weight:normal;line-height:0%;letter-spacing:-6.7300024px;-inkscape-font-specification:Sans"
           d="m 208.70899,836.72373 0,-6.28419 22.68886,-0.0365 0,19.87558 c -3.48315,2.77674 -7.07586,4.86538 -10.77812,6.26592 -3.70236,1.40055 -7.5021,2.10082 -11.39924,2.10082 -5.26121,0 -10.04133,-1.12652 -14.34038,-3.37958 -4.29908,-2.25305 -7.54469,-5.51084 -9.73684,-9.77338 -2.19217,-4.26251 -3.28825,-9.02437 -3.28824,-14.28557 -1e-5,-5.21244 1.08998,-10.07781 3.26997,-14.59614 2.17997,-4.51823 5.31598,-7.87345 9.40802,-10.06566 4.09201,-2.19211 8.80515,-3.28819 14.13943,-3.28824 3.87278,5e-5 7.37415,0.62725 10.5041,1.8816 3.12988,1.25445 5.58388,3.00209 7.36201,5.24292 1.77803,2.24092 3.12986,5.16379 4.05549,8.76864 l -6.3938,1.75372 c -0.80383,-2.72798 -1.80248,-4.87142 -2.99595,-6.43033 -1.19355,-1.55883 -2.89856,-2.80714 -5.11504,-3.74494 -2.21655,-0.93771 -4.67664,-1.40659 -7.38027,-1.40664 -3.23955,5e-5 -6.04064,0.49329 -8.40328,1.47971 -2.36268,0.98652 -4.26864,2.28355 -5.71789,3.89108 -1.44927,1.60763 -2.5758,3.37354 -3.37958,5.29772 -1.36402,3.31264 -2.04602,6.90534 -2.04601,10.77813 -1e-5,4.77405 0.82205,8.76865 2.46618,11.9838 1.6441,3.21518 4.03721,5.6022 7.17932,7.16106 3.14207,1.55888 6.47903,2.33831 10.01087,2.3383 3.06899,10e-6 6.06494,-0.59066 8.98785,-1.77199 2.92284,-1.18132 5.13936,-2.44182 6.64956,-3.78148 l 0,-9.97433 z" />
        <path
           inkscape:connector-curvature="0"
           id="path7395"
           style="-inkscape-font-specification:Sans"
           d="m 236.28629,857.73193 0,-53.56177 7.08798,0 0,53.56177 z" />
        <path
           inkscape:connector-curvature="0"
           id="path7397"
           style="-inkscape-font-specification:Sans"
           d="m 246.94742,831.64523 c 0,-8.89039 2.38702,-15.85049 7.16106,-20.88033 4.77402,-5.02973 10.93642,-7.54462 18.48722,-7.54468 4.9445,6e-5 9.40189,1.18138 13.37217,3.54399 3.9702,2.36271 6.9966,5.65704 9.0792,9.88299 2.0825,4.22604 3.12377,9.01834 3.12383,14.37692 -6e-5,5.4317 -1.09614,10.29099 -3.28824,14.57786 -2.19221,4.2869 -5.29777,7.53251 -9.31668,9.73685 -4.019,2.20433 -8.3546,3.3065 -13.00682,3.3065 -5.04199,0 -9.54809,-1.21786 -13.51832,-3.6536 -3.97026,-2.43572 -6.97838,-5.7605 -9.02439,-9.97432 -2.04602,-4.21381 -3.06903,-8.67119 -3.06903,-13.37218 z m 7.3072,0.10961 c -10e-6,6.45471 1.73545,11.5393 5.20638,15.25378 3.47091,3.7145 7.82477,5.57174 13.06162,5.57174 5.33423,0 9.72463,-1.87551 13.17123,-5.62655 3.44652,-3.75101 5.1698,-9.07308 5.16985,-15.96623 -5e-5,-4.35993 -0.73686,-8.16576 -2.21043,-11.4175 -1.47366,-3.25166 -3.62929,-5.77264 -6.46687,-7.56295 -2.83767,-1.79022 -6.02239,-2.68535 -9.55417,-2.6854 -5.01763,5e-5 -9.33497,1.72333 -12.95201,5.16985 -3.61708,3.4466 -5.42561,9.20101 -5.4256,17.26326 z" />
        <path
           inkscape:connector-curvature="0"
           id="path7399"
           style="-inkscape-font-specification:Sans"
           d="m 315.84694,857.73193 -20.75245,-53.56177 7.67256,0 13.92022,38.91084 c 1.12042,3.11775 2.05817,6.04062 2.81327,8.76864 0.82813,-2.92287 1.79024,-5.84575 2.88635,-8.76864 l 14.46825,-38.91084 7.23413,0 -20.97166,53.56177 z" />
        <path
           inkscape:connector-curvature="0"
           id="path7401"
           style="-inkscape-font-specification:Sans"
           d="m 337.90731,857.73193 20.56977,-53.56177 7.63603,0 21.9216,53.56177 -8.07446,0 -6.24766,-16.22198 -22.39656,0 -5.8823,16.22198 z m 15.45473,-21.99467 18.15839,0 -5.59,-14.83362 c -1.70504,-4.50606 -2.97162,-8.20837 -3.79975,-11.10694 -0.68203,3.43443 -1.64414,6.84445 -2.88634,10.23008 z" />
        <path
           inkscape:connector-curvature="0"
           id="path7403"
           style="-inkscape-font-specification:Sans"
           d="m 386.96779,857.73193 0,-53.56177 7.27066,0 28.13272,42.05293 0,-42.05293 6.7957,0 0,53.56177 -7.27066,0 -28.13272,-42.08947 0,42.08947 z" />
        <path
           inkscape:connector-curvature="0"
           id="path7405"
           style="-inkscape-font-specification:Sans"
           d="m 434.31107,857.73193 0,-53.56177 7.27066,0 28.13272,42.05293 0,-42.05293 6.7957,0 0,53.56177 -7.27067,0 -28.13272,-42.08947 0,42.08947 z" />
        <path
           inkscape:connector-curvature="0"
           id="path7407"
           style="-inkscape-font-specification:Sans"
           d="m 482.9331,857.73193 0,-53.56177 7.08799,0 0,53.56177 z" />
      </g>
      <g
         transform="matrix(0.65915767,0,0,0.65915767,128.05997,-288.73387)"
         id="text7212-5"
         style="font-size:74.82572937px;font-style:normal;font-variant:normal;font-weight:bold;font-stretch:normal;text-align:start;line-height:7.00000003%;letter-spacing:0px;word-spacing:0px;writing-mode:lr-tb;text-anchor:start;fill:#ec4f00;fill-opacity:1;stroke:none;font-family:Sans;-inkscape-font-specification:Sans Bold">
        <path
           inkscape:connector-curvature="0"
           id="path7410"
           style="line-height:0%;-inkscape-font-specification:Sans"
           d="m 286.8481,911.13812 0,-6.57648 27.43854,-34.3073 c 1.94856,-2.43569 3.79971,-4.55478 5.55347,-6.35727 l -29.88645,0 0,-6.32072 38.3628,0 0,6.32072 -30.06912,37.15712 -3.25171,3.7632 34.1977,0 0,6.32073 z" />
        <path
           inkscape:connector-curvature="0"
           id="path7412"
           style="font-size:74.82572937px;font-style:normal;font-variant:normal;font-stretch:normal;text-align:start;line-height:7.00000003%;writing-mode:lr-tb;text-anchor:start;font-family:Sans;-inkscape-font-specification:Sans"
           d="m 365.89352,857.57635 7.08799,0 0,30.94599 c -5e-5,5.38299 -0.60898,9.65769 -1.8268,12.82413 -1.21792,3.16646 -3.41616,5.74225 -6.59475,7.72737 -3.17867,1.98512 -7.34986,2.97768 -12.51358,2.97768 -5.01763,0 -9.12184,-0.86468 -12.31263,-2.59405 -3.19083,-1.72937 -5.46823,-4.23208 -6.83224,-7.50815 -1.36401,-3.27605 -2.04602,-7.75171 -2.04601,-13.42698 l 0,-30.94599 7.08798,0 0,30.90945 c -1e-5,4.65227 0.43233,8.08056 1.29703,10.28489 0.86467,2.20435 2.35047,3.90327 4.45739,5.09677 2.10689,1.19351 4.68268,1.79027 7.72737,1.79026 5.21243,10e-6 8.92692,-1.18132 11.14348,-3.54399 2.21647,-2.36265 3.32473,-6.90529 3.32477,-13.62793 z" />
        <path
           inkscape:connector-curvature="0"
           id="path7414"
           style="font-size:74.82572937px;font-style:normal;font-variant:normal;font-stretch:normal;text-align:start;line-height:7.00000003%;writing-mode:lr-tb;text-anchor:start;font-family:Sans;-inkscape-font-specification:Sans"
           d="m 378.6261,911.13812 0,-53.56177 7.27066,0 28.13272,42.05293 0,-42.05293 6.7957,0 0,53.56177 -7.27066,0 -28.13272,-42.08947 0,42.08947 z" />
        <path
           inkscape:connector-curvature="0"
           id="path7416"
           style="font-size:74.82572937px;font-style:normal;font-variant:normal;font-stretch:normal;text-align:start;line-height:7.00000003%;writing-mode:lr-tb;text-anchor:start;font-family:Sans;-inkscape-font-specification:Sans"
           d="m 427.85814,911.13812 0,-53.56177 7.08798,0 0,53.56177 z" />
        <path
           inkscape:connector-curvature="0"
           id="path7418"
           style="font-size:74.82572937px;font-style:normal;font-variant:normal;font-stretch:normal;text-align:start;line-height:7.00000003%;writing-mode:lr-tb;text-anchor:start;font-family:Sans;-inkscape-font-specification:Sans"
           d="m 441.21182,911.13812 0,-53.56177 7.27067,0 28.13272,42.05293 0,-42.05293 6.79569,0 0,53.56177 -7.27066,0 -28.13272,-42.08947 0,42.08947 z" />
        <path
           inkscape:connector-curvature="0"
           id="path7420"
           style="font-size:74.82572937px;font-style:normal;font-variant:normal;font-stretch:normal;text-align:start;line-height:7.00000003%;writing-mode:lr-tb;text-anchor:start;font-family:Sans;-inkscape-font-specification:Sans"
           d="m 487.08255,885.05142 c 0,-8.89039 2.38701,-15.85049 7.16105,-20.88033 4.77403,-5.02973 10.93643,-7.54463 18.48722,-7.54468 4.94451,5e-5 9.40189,1.18138 13.37218,3.54399 3.9702,2.36271 6.99659,5.65704 9.07919,9.88299 2.0825,4.22603 3.12378,9.01833 3.12383,14.37692 -5e-5,5.4317 -1.09613,10.29099 -3.28824,14.57786 -2.19221,4.2869 -5.29776,7.53251 -9.31668,9.73684 -4.019,2.20434 -8.3546,3.30651 -13.00681,3.30651 -5.042,0 -9.5481,-1.21786 -13.51833,-3.6536 -3.97025,-2.43573 -6.97838,-5.7605 -9.02439,-9.97433 -2.04602,-4.2138 -3.06902,-8.67119 -3.06902,-13.37217 z m 7.3072,0.10961 c -10e-6,6.45471 1.73545,11.5393 5.20638,15.25378 3.4709,3.7145 7.82477,5.57174 13.06162,5.57174 5.33422,0 9.72463,-1.87551 13.17123,-5.62655 3.44651,-3.75101 5.16979,-9.07308 5.16984,-15.96623 -5e-5,-4.35993 -0.73685,-8.16576 -2.21043,-11.4175 -1.47366,-3.25166 -3.62928,-5.77264 -6.46687,-7.56295 -2.83766,-1.79022 -6.02238,-2.68535 -9.55416,-2.6854 -5.01764,5e-5 -9.33497,1.72333 -12.95202,5.16985 -3.61707,3.4466 -5.4256,9.20101 -5.42559,17.26326 z" />
      </g>
    </g>
  </g>
</svg>
